<?xml version="1.0" encoding="utf-8"?>
<!-- Generator: Adobe Illustrator 21.0.0, SVG Export Plug-In . SVG Version: 6.00 Build 0)  -->
<svg version="1.1" id="Layer_1" xmlns="http://www.w3.org/2000/svg" xmlns:xlink="http://www.w3.org/1999/xlink" x="0px" y="0px"
	 viewBox="0 0 437.5 409.5" style="enable-background:new 0 0 437.5 409.5;" xml:space="preserve">
<style type="text/css">
	.st0{fill-rule:evenodd;clip-rule:evenodd;}
	.st1{fill-rule:evenodd;clip-rule:evenodd;fill:#E6E7E8;}
</style>
<g>
	<path class="st0" d="M210.7,135.7L140.5,0L70.4,135.7L0,99v133.3l140.5,75.6L281,232.3V99L210.7,135.7z M209.3,140l66.1-34.5
		l-49,86.5l-84.3-59.6V9.9L209.3,140z M229,193.8l48.8-86.3v120.8L229,193.8z M140.5,174.4L71.6,222l-15.4-27.3l84.4-59.6l84.4,59.6
		L209.5,222L140.5,174.4z M52,193.8L3.2,228.3V107.5L52,193.8z M53.6,196.6l17,30l68.4-47.3v124.1L4.6,231.2L53.6,196.6z M71.8,140
		l67.2-130v122.4L54.6,192l-49-86.5L71.8,140z M142.1,179.3l68.4,47.3l17-30l49,34.6l-134.4,72.3"/>
	<rect x="171.9" y="252.8" class="st1" width="265.6" height="156.8"/>
	<g>
		<polygon class="st0" points="194.2,337.3 187.1,337.3 186.9,337.1 186.9,334.5 187.1,334.3 204.9,334.3 205.1,334.5 204.4,337.1 
			204.2,337.3 197.4,337.3 197.4,359.7 197.2,359.9 194.4,359.9 194.2,359.7 		"/>
		<polygon class="st0" points="208.7,334.6 208.9,334.4 211.7,334 211.9,334.2 211.9,344.9 225.5,344.9 225.5,334.6 225.6,334.4 
			228.5,334 228.6,334.2 228.6,359.7 228.5,359.9 225.6,359.9 225.5,359.7 225.5,348 211.9,348 211.9,359.7 211.7,359.9 
			208.9,359.9 208.7,359.7 		"/>
		<polygon class="st0" points="235.8,334.5 235.9,334.3 249.1,334.3 249.3,334.5 249.3,337.1 249.1,337.3 239,337.3 239,344.9 
			247.8,344.9 248,345.1 247.3,347.8 247.1,347.9 239,347.9 239,356.9 249.2,356.9 249.3,357.1 249,359.7 248.7,359.9 235.9,359.9 
			235.8,359.7 		"/>
		<polygon class="st0" points="261.7,334.7 261.9,334.5 264.9,334 265.1,334.2 271.7,354.3 272.4,356.8 273.1,354.3 279.7,334.7 
			279.9,334.5 283.2,334 283.4,334.2 274.2,360 274,360.2 270.7,359.7 270.4,359.4 		"/>
		<polygon class="st0" points="287.3,334.5 287.5,334.3 300.7,334.3 300.9,334.5 300.9,337.1 300.7,337.3 290.5,337.3 290.5,344.9 
			299.4,344.9 299.5,345.1 298.8,347.8 298.6,347.9 290.5,347.9 290.5,356.9 300.7,356.9 300.9,357.1 300.5,359.7 300.3,359.9 
			287.5,359.9 287.3,359.7 		"/>
		<path class="st0" d="M306.8,334.5l0.2-0.2h6.8c2,0,4,0.3,5.6,1.3c1.9,1.2,3.2,3.2,3.2,6.2c0,7.1-7.4,7.4-7.4,7.4l0.8,0.8l4.5,5.4
			c0.6,0.8,1.6,1.6,3,1.6c0.1,0,0.3,0,0.4,0l0.1,0.2l-0.4,2.6l-0.2,0.2c-0.3,0-0.5,0.1-0.8,0.1c-2.6,0-4.4-2.3-5.1-3.2l-5.9-7.4
			l-0.3-0.2H310v10.4l-0.2,0.2H307l-0.2-0.2V334.5z M313.8,346.4c2.8,0,5.6-1.1,5.6-4.6c0-3.5-2.8-4.6-5.6-4.6H310v9.2H313.8z"/>
		<polygon class="st0" points="333.6,348.7 325.9,334.7 326.1,334.5 329.3,334 329.5,334.2 334.6,344.3 335.2,345.8 335.9,344.3 
			340.7,334.7 340.9,334.5 344.4,334 344.6,334.2 336.8,348.7 336.8,359.7 336.6,359.9 333.8,359.9 333.6,359.7 		"/>
		<path class="st0" d="M190.2,366l0.2-0.2h6.9c4.3,0,8.3,1.3,8.3,6.5c0,2.4-1.2,4.5-3.5,5.4c2.7,0.9,4.2,3.2,4.2,6.2
			c0,5.3-4,7.6-8.3,7.6h-7.6l-0.2-0.2V366z M197.3,376.3c2.6,0,5.1-0.7,5.1-3.8c0-3.2-2.5-3.8-5.1-3.8h-3.9v7.6H197.3z M197.6,388.6
			c2.7,0,5.5-1.2,5.5-4.6c0-3.4-2.7-4.7-5.5-4.7h-4.2v9.3H197.6z"/>
		<polygon class="st0" points="212.3,366 212.5,365.8 225.7,365.8 225.8,366 225.8,368.7 225.7,368.9 215.5,368.9 215.5,376.5 
			224.3,376.5 224.5,376.7 223.8,379.3 223.6,379.5 215.5,379.5 215.5,388.4 225.7,388.4 225.8,388.6 225.5,391.3 225.2,391.5 
			212.5,391.5 212.3,391.3 		"/>
		<path class="st0" d="M230.1,389.4l1.6-2.1l0.3,0c1.1,0.9,3.5,1.7,5.2,1.7c2.7,0,5-1.2,5-4.4c0-6.1-11.4-3.4-11.4-11.8
			c0-4.6,3.5-7.3,7.6-7.3c3.8,0,6.2,1.6,6.5,1.9l0,0.3l-1.4,2.2l-0.3,0c-1.1-0.8-2.7-1.4-4.7-1.4c-3,0-4.5,1.7-4.5,4.1
			c0,5.7,11.4,3.1,11.4,11.9c0,5.7-4.5,7.5-8.4,7.5c-1.8,0-4.9-0.7-6.9-2.3"/>
		<polygon class="st0" points="255.4,368.9 248.4,368.9 248.2,368.7 248.2,366 248.4,365.8 266.2,365.8 266.3,366 265.7,368.7 
			265.4,368.9 258.6,368.9 258.6,391.3 258.4,391.5 255.6,391.5 255.4,391.3 		"/>
		<path class="st0" d="M278.6,374.9c0-6.2,4-9.4,10-9.4c6,0,10,3.3,10,9.4v7.8c0,6.1-4,9.3-10,9.3c-6,0-10-3.2-10-9.3V374.9z
			 M288.6,388.9c3.9,0,6.7-2.1,6.7-6.6v-7.2c0-4.4-2.8-6.6-6.7-6.6c-3.9,0-6.7,2.2-6.7,6.6v7.2C281.9,386.8,284.8,388.9,288.6,388.9
			"/>
		<polygon class="st0" points="304.9,366 305.1,365.8 317.9,365.8 318.1,366 318.1,368.7 317.9,368.9 308.1,368.9 308.1,376.9 
			317.3,376.9 317.4,377.1 316.8,379.7 316.5,379.9 308.1,379.9 308.1,391.3 307.9,391.5 305.1,391.5 304.9,391.3 		"/>
		<path class="st0" d="M216.9,271.5l0.2-0.2l2.8-0.4l0.2,0.1v10.8h1.8l0.3-0.2l7.9-10.1l0.3-0.2l4-0.5l0.2,0.2l-9,10.9l-1.1,1.1
			l1.1,1.2l6,8c0.3,0.5,1.3,1.6,3,1.6c0.2,0,0.3,0,0.5,0l0.1,0.2l-0.4,2.6l-0.2,0.2c-0.2,0-0.5,0-0.7,0c-2.9,0-4.7-2.6-5.1-3.1
			l-6.6-9l-0.3-0.2h-1.6v12l-0.2,0.2h-2.8l-0.2-0.2V271.5z"/>
		<path class="st0" d="M190.2,271.5l0.2-0.2l2.8-0.4l0.2,0.1v16.5c0,4.5,2.9,6.6,6.7,6.6c4,0,6.7-2.1,6.7-6.6v-16.1l0.2-0.2l2.8-0.4
			l0.2,0.1v16.9c0,6.1-3.8,9.3-9.9,9.3c-6,0-9.9-3.2-9.9-9.3V271.5z"/>
		<path class="st0" d="M239.5,271.3l0.2-0.2h6.8c2,0,4,0.3,5.6,1.3c1.9,1.2,3.2,3.2,3.2,6.2c0,7.1-7.4,7.4-7.4,7.4l0.8,0.8l4.5,5.4
			c0.6,0.8,1.6,1.6,3,1.6c0.1,0,0.3,0,0.4,0l0.2,0.2l-0.4,2.6l-0.2,0.2c-0.3,0-0.5,0.1-0.8,0.1c-2.6,0-4.4-2.3-5-3.2l-5.9-7.4
			l-0.3-0.1h-1.3v10.4l-0.2,0.2h-2.8l-0.2-0.2V271.3z M246.4,283.3c2.8,0,5.6-1.1,5.6-4.6c0-3.5-2.8-4.6-5.6-4.6h-3.7v9.2H246.4z"/>
		<path class="st0" d="M267.4,271.5l0.2-0.2l3.2-0.4l0.2,0.1l9,25.5l-0.1,0.2h-3l-0.2-0.2l-2.1-6.1H264l-2,6.1l-0.2,0.2h-3.1
			l-0.1-0.2L267.4,271.5z M273.6,287.6l-4-11.7l-0.4-1.6l-0.4,1.6l-4,11.7H273.6z"/>
		<polygon class="st0" points="284.1,271.5 284.3,271.3 287.1,270.9 287.3,271 287.3,296.6 287.1,296.8 284.3,296.8 284.1,296.6 		
			"/>
		<polygon class="st0" points="294.4,271.5 294.6,271.3 297.4,270.9 297.7,271 310,289.6 310.9,291.4 310.9,271.5 311.1,271.3 
			314,270.9 314.1,271 314.1,296.6 314,296.8 311.3,296.8 310.9,296.6 298.6,277.9 297.6,276.1 297.6,296.6 297.4,296.8 
			294.6,296.8 294.4,296.6 		"/>
		<polygon class="st0" points="321.3,271.5 321.5,271.3 324.3,270.9 324.5,271 324.5,296.6 324.3,296.8 321.5,296.8 321.3,296.6 		
			"/>
		<path class="st0" d="M337.3,271.5l0.2-0.2l3.2-0.4l0.2,0.1l9,25.5l-0.1,0.2h-3l-0.2-0.2l-2.1-6.1h-10.6l-2,6.1l-0.2,0.2h-3.1
			l-0.1-0.2L337.3,271.5z M343.6,287.6l-3.9-11.7l-0.4-1.6l-0.4,1.6l-3.9,11.7H343.6z"/>
		<polygon class="st0" points="354,271.5 354.2,271.3 357,270.9 357.3,271 369.6,289.6 370.6,291.4 370.6,271.5 370.8,271.3 
			373.6,270.9 373.8,271 373.8,296.6 373.6,296.8 370.9,296.8 370.6,296.6 358.2,277.9 357.2,276.1 357.2,296.6 357,296.8 
			354.2,296.8 354,296.6 		"/>
		<path class="st0" d="M190,302.9l0.2-0.2h8.5c6,0,10,3.3,10,9.4v6.9c0,6.1-4,9.3-10,9.3h-8.5l-0.2-0.2V302.9z M198.7,325.3
			c3.9,0,6.7-2.1,6.7-6.6v-6.3c0-4.4-2.9-6.6-6.7-6.6h-5.5v19.6H198.7z"/>
		<polygon class="st0" points="215,302.9 215.2,302.7 228.4,302.7 228.5,302.9 228.5,305.5 228.4,305.7 218.2,305.7 218.2,313.3 
			227,313.3 227.2,313.5 226.5,316.2 226.3,316.4 218.2,316.4 218.2,325.3 228.4,325.3 228.5,325.5 228.2,328.2 227.9,328.4 
			215.2,328.4 215,328.2 		"/>
		<path class="st0" d="M232.8,326.3l1.6-2.1l0.3,0c1.1,0.9,3.5,1.7,5.2,1.7c2.7,0,5-1.2,5-4.4c0-6.1-11.4-3.4-11.4-11.8
			c0-4.5,3.5-7.3,7.6-7.3c3.8,0,6.2,1.6,6.5,1.9l0,0.3l-1.4,2.2l-0.3,0c-1.1-0.8-2.7-1.4-4.7-1.4c-3,0-4.5,1.7-4.5,4.1
			c0,5.7,11.4,3.1,11.4,11.9c0,5.7-4.5,7.5-8.4,7.5c-1.8,0-5-0.7-6.9-2.3"/>
		<polygon class="st0" points="253.8,303.1 254,302.8 256.8,302.5 257,302.6 257,328.2 256.8,328.4 254,328.4 253.8,328.2 		"/>
		<path class="st0" d="M263.3,311.7c0-6.2,4-9.4,10-9.4c4.2,0,7.5,1.9,8.9,5.2l-0.1,0.2l-2.5,1.1l-0.3-0.1c-1-2.1-3.2-3.4-6-3.4
			c-3.9,0-6.7,2.2-6.7,6.7v7.2c0,4.5,2.8,6.6,6.7,6.6c3.9,0,6.8-2.1,6.8-6.6v-0.9h-4.4l-0.2-0.2l-0.4-2.7l0.2-0.2h7.8l0.2,0.2v4.1
			c0,6.1-3.8,9.3-10,9.3c-6,0-10-3.2-10-9.3V311.7z"/>
		<polygon class="st0" points="288.9,303.1 289.1,302.8 291.9,302.5 292.2,302.6 304.5,321.2 305.5,323 305.5,303.1 305.7,302.8 
			308.5,302.5 308.7,302.6 308.7,328.2 308.5,328.4 305.8,328.4 305.5,328.2 293.1,309.5 292.1,307.6 292.1,328.2 291.9,328.4 
			289.1,328.4 288.9,328.2 		"/>
	</g>
</g>
</svg>
